<svg width="70" height="70" viewBox="0 0 70 70" fill="none" xmlns="http://www.w3.org/2000/svg">
<path d="M17.5 20.4167H32.0833C32.8569 20.4167 33.5988 20.7239 34.1457 21.2709C34.6927 21.8179 35 22.5598 35 23.3333C35 24.1069 34.6927 24.8487 34.1457 25.3957C33.5988 25.9427 32.8569 26.25 32.0833 26.25H17.5C16.7265 26.25 15.9846 25.9427 15.4376 25.3957C14.8906 24.8487 14.5833 24.1069 14.5833 23.3333C14.5833 22.5598 14.8906 21.8179 15.4376 21.2709C15.9846 20.7239 16.7265 20.4167 17.5 20.4167ZM37.9167 43.75H52.5C53.2736 43.75 54.0154 44.0573 54.5624 44.6043C55.1094 45.1512 55.4167 45.8931 55.4167 46.6667C55.4167 47.4402 55.1094 48.1821 54.5624 48.729C54.0154 49.276 53.2736 49.5833 52.5 49.5833H37.9167C37.1431 49.5833 36.4013 49.276 35.8543 48.729C35.3073 48.1821 35 47.4402 35 46.6667C35 45.8931 35.3073 45.1512 35.8543 44.6043C36.4013 44.0573 37.1431 43.75 37.9167 43.75ZM17.5 32.0833H52.5C53.2736 32.0833 54.0154 32.3906 54.5624 32.9376C55.1094 33.4846 55.4167 34.2264 55.4167 35C55.4167 35.7735 55.1094 36.5154 54.5624 37.0624C54.0154 37.6094 53.2736 37.9167 52.5 37.9167H17.5C16.7265 37.9167 15.9846 37.6094 15.4376 37.0624C14.8906 36.5154 14.5833 35.7735 14.5833 35C14.5833 34.2264 14.8906 33.4846 15.4376 32.9376C15.9846 32.3906 16.7265 32.0833 17.5 32.0833Z" fill="#111111"/>
</svg>
