<svg width="295" height="245" viewBox="0 0 295 245" fill="none" xmlns="http://www.w3.org/2000/svg">
<g opacity="0.8">
<path d="M359.655 29.4493C395.319 96.524 359.328 185.408 279.265 227.978C139.731 302.17 256.151 95.9358 58.0719 190.443C43.1892 197.544 24.4207 196.261 14.8264 182.849C-39.4447 106.986 76.5872 24.1742 150.114 -14.9206C230.176 -57.4904 323.991 -37.6253 359.655 29.4493Z" fill="url(#paint0_linear_2_16)"/>
<path d="M359.655 29.4493C395.319 96.524 359.328 185.408 279.265 227.978C139.731 302.17 256.151 95.9358 58.0719 190.443C43.1892 197.544 24.4207 196.261 14.8264 182.849C-39.4447 106.986 76.5872 24.1742 150.114 -14.9206C230.176 -57.4904 323.991 -37.6253 359.655 29.4493Z" fill="#CFDE1F" fill-opacity="0.2"/>
</g>
<defs>
<linearGradient id="paint0_linear_2_16" x1="176.152" y1="45" x2="257.691" y2="239.449" gradientUnits="userSpaceOnUse">
<stop stop-color="#E13D96"/>
<stop offset="1" stop-color="#B7E13D" stop-opacity="0.37"/>
</linearGradient>
</defs>
</svg>
